<svg width="236" height="205" viewBox="0 0 236 205" fill="none" xmlns="http://www.w3.org/2000/svg">
<g filter="url(#filter0_d)">
<path d="M130.487 93.7695C129.126 93.7695 127.794 94.3301 126.832 95.3082L120.608 101.635C119.645 102.613 119.094 103.966 119.094 105.35C119.094 108.247 121.413 110.604 124.263 110.604C125.624 110.604 126.956 110.044 127.918 109.066L134.142 102.739C135.105 101.761 135.656 100.407 135.656 99.0236C135.656 96.1264 133.337 93.7695 130.487 93.7695ZM124.263 107.237C123.239 107.237 122.406 106.391 122.406 105.35C122.406 104.854 122.603 104.367 122.949 104.015L124.891 102.042L127.517 104.712L125.576 106.685C125.23 107.037 124.752 107.237 124.263 107.237ZM131.801 100.359L129.859 102.332L127.233 99.6617L129.174 97.6887C129.52 97.3368 129.998 97.1365 130.487 97.1365C131.511 97.1365 132.344 97.9833 132.344 99.0236C132.344 99.5203 132.147 100.007 131.801 100.359Z" fill="#F67B92"/>
<path d="M180.375 110.604C177.636 110.604 175.406 112.87 175.406 115.654C175.406 116.432 175.593 117.159 175.905 117.818L144.138 150.106C143.575 150.679 142.795 151.007 141.996 151.007C140.327 151.007 138.969 149.626 138.969 147.93C138.969 147.12 139.292 146.325 139.855 145.753L168.581 116.555C169.778 115.338 170.438 113.72 170.438 111.998C170.438 108.446 167.592 105.554 164.097 105.554C162.405 105.554 160.811 106.224 159.614 107.441L124.263 143.372C123.7 143.945 122.92 144.273 122.121 144.273C120.452 144.273 119.094 142.893 119.094 141.196C119.094 140.386 119.417 139.591 119.98 139.019L133.8 124.972C134.997 123.755 135.656 122.137 135.656 120.415C135.656 117.493 133.718 115.045 131.09 114.259L149.744 95.2982L162.479 92.2529C172.041 89.9651 178.719 81.3946 178.719 71.4118C178.719 59.6058 169.268 50 157.653 50C147.831 50 139.399 56.7877 137.147 66.5062L134.151 79.4502L86.9393 127.439L89.0428 129.577L85.7153 139.719L86.9559 140.889L84.5129 143.372C83.3154 144.59 82.6562 146.207 82.6562 147.93C82.6562 151.482 85.5017 154.374 88.9964 154.374C90.6891 154.374 92.2824 153.704 93.4798 152.487L102.531 143.287L127.175 118.239C127.738 117.666 128.518 117.338 129.316 117.338C130.986 117.338 132.344 118.718 132.344 120.415C132.344 121.225 132.021 122.02 131.458 122.592L117.638 136.639C116.44 137.856 115.781 139.474 115.781 141.196C115.781 144.748 118.627 147.64 122.121 147.64C123.814 147.64 125.407 146.97 126.605 145.753L161.956 109.821C162.519 109.249 163.299 108.921 164.097 108.921C165.767 108.921 167.125 110.301 167.125 111.998C167.125 112.808 166.802 113.602 166.239 114.175L137.513 143.372C136.315 144.59 135.656 146.207 135.656 147.93C135.656 151.482 138.502 154.374 141.996 154.374C143.689 154.374 145.282 153.704 146.48 152.487L178.247 120.198C178.894 120.515 179.61 120.705 180.375 120.705C183.114 120.705 185.344 118.439 185.344 115.654C185.344 112.87 183.114 110.604 180.375 110.604ZM161.719 88.9752L149.425 91.9162L137.48 79.7751L140.373 67.2789C140.676 65.9675 141.129 64.7268 141.682 63.5551L165.383 87.6453C164.23 88.2092 163.011 88.6671 161.719 88.9752ZM168.306 85.8558L143.442 60.5838C144.189 59.567 145.041 58.6445 145.973 57.8162L171.027 83.2818C170.212 84.2295 169.306 85.0965 168.306 85.8558ZM175.406 71.4118C175.406 74.7147 174.528 77.8274 172.988 80.5142L148.698 55.8247C151.343 54.2591 154.403 53.3669 157.653 53.3669C167.441 53.3669 175.406 61.4626 175.406 71.4118ZM135.656 82.6825L146.564 93.7696L143.938 96.4396L133.029 85.3524L135.656 82.6825ZM97.7927 138.47L91.4741 140.556L89.533 138.726L91.6596 132.238L97.7927 138.47ZM91.1379 150.106C90.5748 150.679 89.7947 151.007 88.9964 151.007C87.3269 151.007 85.9688 149.626 85.9688 147.93C85.9688 147.12 86.2917 146.325 86.8548 145.753L89.3873 143.179L90.651 144.369L99.7338 141.369L91.1379 150.106ZM91.6232 127.439L94.25 124.769L105.158 135.856L102.531 138.526L91.6232 127.439ZM107.5 133.475L96.5919 122.388L130.688 87.7328L141.596 98.82L124.833 115.858L107.5 133.475ZM180.375 117.338C179.461 117.338 178.719 116.584 178.719 115.654C178.719 114.725 179.461 113.971 180.375 113.971C181.289 113.971 182.031 114.725 182.031 115.654C182.031 116.584 181.289 117.338 180.375 117.338Z" fill="#F67B92"/>
<path d="M108.276 63.0947C104.816 63.0947 102 60.2377 102 56.7261C102 53.2144 104.816 50.3574 108.276 50.3574C111.737 50.3574 114.553 53.2144 114.553 56.7261C114.553 60.2377 111.737 63.0947 108.276 63.0947ZM108.276 53.5417C106.546 53.5417 105.138 54.9702 105.138 56.7261C105.138 58.4819 106.546 59.9104 108.276 59.9104C110.007 59.9104 111.414 58.4819 111.414 56.7261C111.414 54.9702 110.007 53.5417 108.276 53.5417Z" fill="#F67B92"/>
<path d="M56 94.2434C52.6916 94.2434 50 91.4963 50 88.1198C50 84.7432 52.6916 81.9961 56 81.9961C59.3084 81.9961 62 84.7432 62 88.1198C62 91.4963 59.3084 94.2434 56 94.2434ZM56 85.0579C54.3458 85.0579 53 86.4315 53 88.1198C53 89.808 54.3458 91.1816 56 91.1816C57.6542 91.1816 59 89.808 59 88.1198C59 86.4315 57.6542 85.0579 56 85.0579Z" fill="#F67B92"/>
</g>
<defs>
<filter id="filter0_d" x="0" y="0" width="235.344" height="204.374" filterUnits="userSpaceOnUse" color-interpolation-filters="sRGB">
<feFlood flood-opacity="0" result="BackgroundImageFix"/>
<feColorMatrix in="SourceAlpha" type="matrix" values="0 0 0 0 0 0 0 0 0 0 0 0 0 0 0 0 0 0 127 0"/>
<feOffset/>
<feGaussianBlur stdDeviation="25"/>
<feColorMatrix type="matrix" values="0 0 0 0 0.992157 0 0 0 0 0.368627 0 0 0 0 0.352941 0 0 0 0.5 0"/>
<feBlend mode="normal" in2="BackgroundImageFix" result="effect1_dropShadow"/>
<feBlend mode="normal" in="SourceGraphic" in2="effect1_dropShadow" result="shape"/>
</filter>
</defs>
</svg>
