<svg width="267" height="211" viewBox="0 0 267 211" fill="none" xmlns="http://www.w3.org/2000/svg">
<g filter="url(#filter0_d)">
<path d="M211 131.656C207.692 131.656 205 128.68 205 125.022C205 121.365 207.692 118.389 211 118.389C214.308 118.389 217 121.365 217 125.022C217 128.68 214.308 131.656 211 131.656ZM211 121.706C209.346 121.706 208 123.194 208 125.022C208 126.851 209.346 128.339 211 128.339C212.654 128.339 214 126.851 214 125.022C214 123.194 212.654 121.706 211 121.706Z" fill="#F67B92"/>
<path d="M56.5 80.627C52.9159 80.627 50 77.651 50 73.9932C50 70.3353 52.9159 67.3594 56.5 67.3594C60.0841 67.3594 63 70.3353 63 73.9932C63 77.651 60.0841 80.627 56.5 80.627ZM56.5 70.6763C54.7079 70.6763 53.25 72.1642 53.25 73.9932C53.25 75.8221 54.7079 77.3101 56.5 77.3101C58.292 77.3101 59.75 75.8221 59.75 73.9932C59.75 72.1642 58.292 70.6763 56.5 70.6763Z" fill="#F67B92"/>
<path d="M160.481 127.646H166.095C169.1 127.646 171.544 125.151 171.544 122.085V109.634C171.544 106.567 169.1 104.072 166.095 104.072H163.737V92.2184C163.737 92.1972 163.738 92.1759 163.738 92.1547C163.738 92.1325 163.737 92.1122 163.737 92.091V89.0244C163.737 85.9569 161.292 83.4629 158.287 83.4629H150.455C149.451 83.4629 148.639 84.2923 148.639 85.3167C148.639 86.3402 149.451 87.1706 150.455 87.1706H158.287C159.288 87.1706 160.104 88.0019 160.104 89.0244V90.3009H137.793V89.0244C137.793 88.0019 138.608 87.1706 139.61 87.1706H142.926C143.928 87.1706 144.742 86.3402 144.742 85.3167C144.742 84.2923 143.928 83.4629 142.926 83.4629H139.61C136.605 83.4629 134.16 85.9569 134.16 89.0244V96.1926H129.84V89.0244C129.84 85.9569 127.395 83.4629 124.391 83.4629H105.713C102.708 83.4629 100.264 85.9569 100.264 89.0244V92.091C100.263 92.1122 100.263 92.1325 100.263 92.1547C100.263 92.1759 100.263 92.1972 100.264 92.2184V104.072H92.0293C89.0247 104.072 86.5801 106.567 86.5801 109.634V118.537C86.5801 119.562 87.3937 120.391 88.3965 120.391C89.4002 120.391 90.2129 119.562 90.2129 118.537V114.758H108.071C105.088 119.37 103.352 124.892 103.352 130.821C103.352 134.694 104.093 138.394 105.439 141.78H92.0293C91.0274 141.78 90.2129 140.947 90.2129 139.926V126.225C90.2129 125.2 89.4002 124.371 88.3965 124.371C87.3937 124.371 86.5801 125.2 86.5801 126.225V139.926C86.5801 142.992 89.0247 145.487 92.0293 145.487H107.223C107.33 145.674 107.438 145.86 107.548 146.044L105.023 155.015C104.684 156.22 104.913 157.485 105.651 158.486C106.389 159.487 107.517 160.06 108.745 160.06C110.103 160.06 111.378 159.321 112.069 158.134L114.509 153.964C119.351 157.785 125.42 160.06 132 160.06C138.579 160.06 144.648 157.785 149.49 153.964L151.928 158.131C152.622 159.322 153.896 160.06 155.254 160.06C156.481 160.06 157.61 159.487 158.348 158.486C159.086 157.485 159.316 156.22 158.976 155.015L156.451 146.044C159.113 141.608 160.649 136.394 160.649 130.821C160.649 129.748 160.592 128.689 160.481 127.646ZM166.095 123.938H159.847C159.061 120.623 157.719 117.527 155.929 114.758H167.912V122.085C167.912 123.107 167.097 123.938 166.095 123.938ZM167.912 109.634V111.05H153.09C152.819 110.75 152.543 110.457 152.261 110.168H158.287C160.137 110.168 161.775 109.223 162.759 107.78H166.095C167.097 107.78 167.912 108.612 167.912 109.634ZM137.793 94.0085H160.103V104.606C160.103 105.629 159.288 106.46 158.286 106.46H147.829C144.831 104.424 141.437 102.948 137.793 102.182V99.9003H142.962C143.965 99.9003 144.779 99.0699 144.779 98.0464C144.779 97.022 143.965 96.1926 142.962 96.1926H137.793V94.0085ZM134.16 99.9003V101.663C133.447 101.609 132.727 101.581 132.001 101.581C131.273 101.581 130.553 101.609 129.84 101.663V99.9003H134.16ZM121.038 99.9003H126.207V102.182C122.563 102.949 119.169 104.425 116.171 106.46H105.713C104.711 106.46 103.896 105.629 103.896 104.606V94.0085H126.207V96.1926H121.038C120.035 96.1926 119.221 97.022 119.221 98.0464C119.221 99.0699 120.035 99.9003 121.038 99.9003ZM105.713 87.1706H124.391C125.393 87.1706 126.207 88.0019 126.207 89.0244V90.3009H103.896V89.0244C103.896 88.0019 104.711 87.1706 105.713 87.1706ZM90.2129 111.05V109.634C90.2129 108.611 91.0274 107.78 92.0293 107.78H101.241C102.226 109.223 103.863 110.168 105.713 110.168H111.739C111.457 110.457 111.181 110.75 110.91 111.05H90.2129ZM108.949 156.236C108.867 156.377 108.651 156.388 108.554 156.256C108.506 156.19 108.492 156.118 108.515 156.04L110.26 149.843C110.732 150.405 111.225 150.948 111.737 151.471L108.949 156.236ZM155.485 156.04C155.507 156.118 155.494 156.191 155.446 156.256C155.349 156.388 155.134 156.38 155.049 156.234L152.263 151.472C152.776 150.948 153.269 150.405 153.741 149.843L155.485 156.04ZM132.001 156.353C118.206 156.353 106.984 144.899 106.984 130.821C106.984 116.74 118.209 105.289 132.001 105.289C145.772 105.289 157.017 116.719 157.017 130.821C157.016 144.899 145.794 156.353 132.001 156.353Z" fill="#F67B92"/>
<path d="M82.8074 140.944V93.8672C82.8074 92.3773 83.1934 90.9078 83.9247 89.6159L96.9905 66.5183L98.6026 67.4684C99.4711 67.9801 100.582 67.6759 101.083 66.7896C101.585 65.9032 101.287 64.7697 100.419 64.257L97.263 62.3983C97.2535 62.3916 97.2441 62.3858 97.2337 62.3809C97.2242 62.3751 97.2148 62.3693 97.2053 62.3645L84.7421 55.0197C84.5273 54.8932 84.4488 54.6981 84.4204 54.5929C84.393 54.4876 84.3656 54.2781 84.4895 54.0589C84.6797 53.722 85.1025 53.6071 85.4318 53.8011L94.7825 59.3115C95.5715 59.7759 96.5743 59.5731 97.1296 58.8364C97.6906 58.092 98.7142 57.8854 99.5117 58.3546C100.308 58.8248 100.644 59.8329 100.293 60.7009C99.946 61.5593 100.276 62.548 101.064 63.0124L110.415 68.5227C110.631 68.6492 110.708 68.8443 110.737 68.9505C110.764 69.0547 110.791 69.2643 110.668 69.4844C110.476 69.8204 110.054 69.9353 109.725 69.7412L107.319 68.3229C106.45 67.8111 105.339 68.1153 104.837 69.0016C104.336 69.888 104.634 71.0225 105.502 71.5342L107.909 72.9526C108.588 73.3524 109.33 73.5426 110.063 73.5426C111.558 73.5426 113.014 72.7508 113.813 71.3382C114.391 70.3177 114.544 69.1281 114.245 67.9907C113.947 66.8523 113.231 65.9013 112.231 65.3113L104.041 60.4856C104.171 58.9871 103.699 57.4885 102.745 56.3473L103.409 55.1741C103.911 54.2868 103.613 53.1533 102.743 52.6415C101.874 52.1298 100.764 52.4339 100.263 53.3203L99.5997 54.4934C98.1542 54.2202 96.6452 54.5523 95.4381 55.4165L87.2482 50.5898C85.1839 49.3741 82.535 50.0983 81.3439 52.2051C80.7659 53.2257 80.6126 54.4143 80.9125 55.5526C81.2105 56.69 81.9257 57.6421 82.9257 58.231L93.8449 64.6644L80.7791 87.7611C79.729 89.6159 79.1746 91.7275 79.1746 93.8672V140.95L70.2307 157.303C69.7416 158.197 70.0557 159.327 70.9317 159.825C71.2118 159.985 71.5154 160.061 71.8153 160.061C72.452 160.061 73.0698 159.719 73.4028 159.111L80.992 145.233L88.5821 159.111C89.0712 160.005 90.1771 160.325 91.0532 159.826C91.9292 159.327 92.2423 158.197 91.7542 157.303L82.8074 140.944Z" fill="#F67B92"/>
<path d="M189.677 71.681H180.22C179.598 70.3167 178.454 69.2594 177.068 68.7583V67.4027C177.068 66.3792 176.255 65.5488 175.252 65.5488C174.248 65.5488 173.435 66.3792 173.435 67.4027V68.7592C172.05 69.2604 170.908 70.3176 170.285 71.681H160.828C158.445 71.681 156.506 73.6603 156.506 76.0925C156.506 78.5247 158.445 80.5041 160.828 80.5041H173.435V140.95L164.491 157.304C164.002 158.198 164.315 159.328 165.191 159.826C166.068 160.325 167.174 160.006 167.664 159.111L175.253 145.233L182.843 159.111C183.175 159.719 183.794 160.062 184.43 160.062C184.73 160.062 185.034 159.985 185.314 159.826C186.19 159.327 186.503 158.198 186.015 157.304L177.068 140.945V80.5041H189.677C192.061 80.5041 194 78.5257 194 76.0925C194 73.6603 192.061 71.681 189.677 71.681ZM189.677 76.7964H175.311C175.291 76.7954 175.272 76.7954 175.252 76.7954C175.232 76.7954 175.212 76.7964 175.192 76.7964H160.828C160.449 76.7964 160.14 76.4807 160.14 76.0925C160.14 75.7044 160.448 75.3896 160.828 75.3896H171.626C172.537 75.3896 173.307 74.7012 173.427 73.7801C173.547 72.8599 174.316 72.1637 175.223 72.1483H175.252H175.282C176.189 72.1628 176.959 72.8589 177.079 73.7801C177.2 74.7012 177.97 75.3886 178.88 75.3886H189.678C190.057 75.3886 190.367 75.7044 190.367 76.0925C190.367 76.4807 190.057 76.7964 189.677 76.7964Z" fill="#F67B92"/>
</g>
<defs>
<filter id="filter0_d" x="0" y="0" width="267" height="210.062" filterUnits="userSpaceOnUse" color-interpolation-filters="sRGB">
<feFlood flood-opacity="0" result="BackgroundImageFix"/>
<feColorMatrix in="SourceAlpha" type="matrix" values="0 0 0 0 0 0 0 0 0 0 0 0 0 0 0 0 0 0 127 0"/>
<feOffset/>
<feGaussianBlur stdDeviation="25"/>
<feColorMatrix type="matrix" values="0 0 0 0 0.992157 0 0 0 0 0.368627 0 0 0 0 0.352941 0 0 0 0.5 0"/>
<feBlend mode="normal" in2="BackgroundImageFix" result="effect1_dropShadow"/>
<feBlend mode="normal" in="SourceGraphic" in2="effect1_dropShadow" result="shape"/>
</filter>
</defs>
</svg>
