<svg width="229" height="201" viewBox="0 0 229 201" fill="none" xmlns="http://www.w3.org/2000/svg">
<g filter="url(#filter0_d)">
<path d="M124.099 94.4151H115.69C108.505 94.4151 102.695 88.4813 102.695 81.1421V78.7998C102.695 64.1215 91.0758 52.2539 76.7045 52.2539C62.3332 52.2539 50.7139 64.1215 50.7139 78.7998V144.54C50.7139 147.507 53.16 150.005 56.0649 150.005H141.375C144.28 150.005 146.726 147.507 146.726 144.54V117.682C146.879 104.877 136.636 94.4151 124.099 94.4151ZM76.7045 56.124C88.4767 56.124 98.873 66.7761 98.873 78.7998V81.1421C98.873 90.9797 105.294 98.309 114.926 98.309H123.335C133.425 98.309 142.979 107.376 142.979 117.682V126.206L54.682 126.362V79.1121C54.682 66.9322 64.9323 56.124 76.7045 56.124ZM141.641 145.937H56.331C55.8724 145.937 54.682 145.165 54.682 144.696V130.486H62.9448V137.357C62.9448 138.606 64.015 139.699 65.238 139.699C66.4611 139.699 67.5313 138.606 67.5313 137.357V130.486H72.1179V137.357C72.1179 138.606 73.1881 139.699 74.4112 139.699C75.6343 139.699 76.7045 138.606 76.7045 137.357V130.486H87.4065V137.357C87.4065 138.606 88.4767 139.699 89.6998 139.699C90.9229 139.699 91.9931 138.606 91.9931 137.357V130.486H96.5797V137.357C96.5797 138.606 97.6499 139.699 98.873 139.699C100.096 139.699 101.166 138.606 101.166 137.357V130.486H105.753V137.357C105.753 138.606 106.823 139.699 108.046 139.699C109.269 139.699 110.339 138.606 110.339 137.357V130.486H121.041V137.357C121.041 138.606 122.112 139.699 123.335 139.699C124.558 139.699 125.628 138.606 125.628 137.357V130.486H130.215V137.357C130.215 138.606 131.285 139.699 132.508 139.699C133.731 139.699 134.801 138.606 134.801 137.357V130.486L142.826 130.33V144.54C142.979 145.008 142.1 145.937 141.641 145.937Z" fill="#F67B92"/>
<path d="M67.5313 101.285C68.1428 101.285 68.7544 101.129 69.213 100.661L75.9399 93.7903C76.8573 92.8535 76.8573 91.4481 75.9399 90.5113C75.0226 89.5744 73.6467 89.5744 72.7294 90.5113L66.0024 97.3817C65.0851 98.3186 65.0851 99.7239 66.0024 100.661C66.4611 100.973 66.9197 101.285 67.5313 101.285Z" fill="#F67B92"/>
<path d="M67.5313 116.276C68.1428 116.276 68.7544 116.12 69.213 115.652L90.1583 94.2591C91.0756 93.3222 91.0756 91.9169 90.1583 90.98C89.241 90.0431 87.865 90.0431 86.9477 90.98L66.0024 112.372C65.0851 113.309 65.0851 114.715 66.0024 115.652C66.4611 116.12 66.9197 116.276 67.5313 116.276Z" fill="#F67B92"/>
<path d="M125.122 64.0989C121.321 64.0989 118.229 60.9365 118.229 57.0494C118.229 53.1624 121.321 50 125.122 50C128.922 50 132.014 53.1624 132.014 57.0494C132.014 60.9365 128.922 64.0989 125.122 64.0989ZM125.122 53.5247C123.222 53.5247 121.676 55.1059 121.676 57.0494C121.676 58.993 123.222 60.5742 125.122 60.5742C127.022 60.5742 128.568 58.993 128.568 57.0494C128.568 55.1059 127.022 53.5247 125.122 53.5247Z" fill="#F67B92"/>
<path d="M172 97.9683C168.14 97.9683 165 94.7633 165 90.824C165 86.8846 168.14 83.6797 172 83.6797C175.86 83.6797 179 86.8846 179 90.824C179 94.7633 175.86 97.9683 172 97.9683ZM172 87.2518C170.07 87.2518 168.5 88.8543 168.5 90.824C168.5 92.7937 170.07 94.3961 172 94.3961C173.93 94.3961 175.5 92.7937 175.5 90.824C175.5 88.8543 173.93 87.2518 172 87.2518Z" fill="#F67B92"/>
</g>
<defs>
<filter id="filter0_d" x="0.713867" y="0" width="228.286" height="200.005" filterUnits="userSpaceOnUse" color-interpolation-filters="sRGB">
<feFlood flood-opacity="0" result="BackgroundImageFix"/>
<feColorMatrix in="SourceAlpha" type="matrix" values="0 0 0 0 0 0 0 0 0 0 0 0 0 0 0 0 0 0 127 0"/>
<feOffset/>
<feGaussianBlur stdDeviation="25"/>
<feColorMatrix type="matrix" values="0 0 0 0 0.992157 0 0 0 0 0.368627 0 0 0 0 0.352941 0 0 0 0.5 0"/>
<feBlend mode="normal" in2="BackgroundImageFix" result="effect1_dropShadow"/>
<feBlend mode="normal" in="SourceGraphic" in2="effect1_dropShadow" result="shape"/>
</filter>
</defs>
</svg>
