<svg width="19" height="19" viewBox="0 0 19 19" fill="none" xmlns="http://www.w3.org/2000/svg">
<path d="M15.4658 11.4951C14.8124 10.85 13.9967 10.85 13.3475 11.4951C12.8522 11.9862 12.357 12.4773 11.87 12.9767C11.7369 13.1141 11.6245 13.1432 11.4622 13.0516C11.1417 12.8768 10.8005 12.7353 10.4925 12.5439C9.05666 11.6408 7.85389 10.4796 6.78847 9.17283C6.25992 8.52359 5.78964 7.82856 5.46085 7.04614C5.39426 6.88799 5.40675 6.78395 5.53577 6.65493C6.03102 6.17632 6.51379 5.68523 7.00072 5.19414C7.6791 4.5116 7.6791 3.71253 6.99656 3.02583C6.60951 2.63462 6.22246 2.25174 5.83542 1.86053C5.43588 1.46099 5.04051 1.0573 4.63681 0.661924C3.98341 0.0251672 3.1677 0.0251673 2.51845 0.666086C2.01904 1.15718 1.54043 1.66076 1.03269 2.14353C0.562401 2.58884 0.325178 3.13404 0.275236 3.7708C0.196162 4.80709 0.450032 5.78511 0.807948 6.73817C1.54043 8.71087 2.65579 10.463 4.00838 12.0694C5.83542 14.2419 8.01621 15.9607 10.5674 17.201C11.7161 17.7586 12.9063 18.1873 14.2007 18.2581C15.0913 18.308 15.8654 18.0833 16.4855 17.3882C16.91 16.9138 17.3886 16.481 17.8381 16.0273C18.504 15.3531 18.5081 14.5374 17.8464 13.8715C17.0557 13.0766 16.2608 12.2859 15.4658 11.4951Z" fill="white"/>
</svg>
