<svg width="183" height="159" viewBox="0 0 183 159" fill="none" xmlns="http://www.w3.org/2000/svg">
<g opacity="0.25" clip-path="url(#clip0)">
<path fill-rule="evenodd" clip-rule="evenodd" d="M177.657 21.6003C175.447 13.0654 169.552 6.85819 161.446 4.5305C142.286 -0.900791 38.3842 -0.900791 19.2249 4.5305C11.1191 6.85819 5.22392 13.0654 3.01323 21.6003C-2.14504 41.7736 -2.14504 113.156 3.01323 132.554C5.22392 141.089 11.1191 147.296 19.2249 149.623C38.3842 155.055 142.286 155.055 161.446 149.623C169.552 147.296 175.447 141.089 177.657 132.554C182.816 112.38 182.816 40.9977 177.657 21.6003ZM65.6493 102.294V52.6362C65.6493 48.7567 69.3338 46.429 72.2814 48.7567L112.811 73.5854C115.758 75.1372 115.758 79.7926 112.811 82.1203L72.2814 106.949C69.3338 108.501 65.6493 106.173 65.6493 103.07V102.294Z" fill="white"/>
</g>
<g clip-path="url(#clip1)">
<path fill-rule="evenodd" clip-rule="evenodd" d="M159.141 33.9561C157.403 27.2455 152.769 22.365 146.396 20.5348C131.334 16.2644 49.6496 16.2644 34.5873 20.5348C28.2147 22.365 23.5802 27.2455 21.8422 33.9561C17.787 49.8176 17.787 105.943 21.8422 121.194C23.5802 127.905 28.2147 132.785 34.5873 134.616C49.6496 138.886 131.334 138.886 146.396 134.616C152.769 132.785 157.403 127.905 159.141 121.194C163.196 105.333 163.196 49.2075 159.141 33.9561ZM71.0844 97.4021V58.3584C71.0844 55.3081 73.981 53.4779 76.2983 55.3081L108.161 74.8299C110.478 76.0501 110.478 79.7104 108.161 81.5406L76.2983 101.062C73.981 102.283 71.0844 100.452 71.0844 98.0121V97.4021Z" fill="white"/>
</g>
<defs>
<clipPath id="clip0">
<rect width="182.013" height="157.507" fill="white" transform="translate(0.0654297 0.651367)"/>
</clipPath>
<clipPath id="clip1">
<rect width="143.092" height="123.842" fill="white" transform="translate(19.5254 17.4844)"/>
</clipPath>
</defs>
</svg>
