<svg width="42" height="36" viewBox="0 0 42 36" fill="none" xmlns="http://www.w3.org/2000/svg">
<path d="M41.1347 5.63309C40.6505 3.43046 39.2319 1.69424 37.433 1.10112C34.1463 0 20.9996 0 20.9996 0C20.9996 0 7.85318 0 4.56649 1.05915C2.80219 1.65188 1.34902 3.43085 0.864849 5.63309C0 9.65628 0 18 0 18C0 18 0 26.3857 0.864849 30.3669C1.34934 32.5691 2.76758 34.3058 4.56681 34.8989C7.88778 36 20.9999 36 20.9999 36C20.9999 36 34.1463 36 37.433 34.9409C39.2322 34.3481 40.6505 32.6115 41.135 30.4093C41.9998 26.3857 41.9998 18.0424 41.9998 18.0424C41.9998 18.0424 42.0344 9.65628 41.1347 5.63309Z" fill="#FF0000"/>
<path d="M16.8135 25.7072L27.7458 17.9997L16.8135 10.2922V25.7072Z" fill="white"/>
</svg>
