<svg width="17" height="17" viewBox="0 0 17 17" fill="none" xmlns="http://www.w3.org/2000/svg">
<path fill-rule="evenodd" clip-rule="evenodd" d="M11.4639 6.77216C11.4639 9.21644 9.45999 11.228 6.95071 11.228C4.44142 11.228 2.4375 9.21644 2.4375 6.77216C2.4375 4.32788 4.44142 2.31628 6.95071 2.31628C9.45999 2.31628 11.4639 4.32788 11.4639 6.77216ZM10.3282 12.2933C9.34337 12.8865 8.18728 13.228 6.95071 13.228C3.35356 13.228 0.4375 10.3376 0.4375 6.77216C0.4375 3.20668 3.35356 0.316284 6.95071 0.316284C10.5479 0.316284 13.4639 3.20668 13.4639 6.77216C13.4639 8.3914 12.8625 9.87141 11.869 11.0047L15.8696 14.9738C16.2616 15.3628 16.2641 15.996 15.8751 16.388C15.4862 16.7801 14.853 16.7826 14.4609 16.3936L10.3282 12.2933Z" fill="white"/>
</svg>
